<svg xmlns="http://www.w3.org/2000/svg" xmlns:xlink="http://www.w3.org/1999/xlink" version="1.1" fill="#0c8fe4" x="0px" y="0px" viewBox="0 -32.5 90 112.5" xml:space="preserve"><path d="M33.327,55.113L23.231,45.016c-0.31-0.309-0.31-0.811,0-1.12c0.309-0.31,0.811-0.31,1.12,0l8.977,8.978L51.08,35.119  c0.31-0.31,0.811-0.31,1.12,0c0.31,0.309,0.31,0.811,0,1.12L33.327,55.113z"/><path d="M64.768,35.119c-0.31-0.31-0.811-0.31-1.12,0L45.895,52.874l-3.417-3.417l-1.12,1.12l4.537,4.536l18.873-18.875  C65.077,35.93,65.077,35.428,64.768,35.119z"/></svg>